<svg xmlns="http://www.w3.org/2000/svg" viewBox="0 0 64 64" fill="none" role="img" aria-label="Payroll">
  <defs>
    <linearGradient id="ring" x1="8" y1="4" x2="56" y2="60" gradientUnits="userSpaceOnUse">
      <stop stop-color="#00AAEF"/>
      <stop offset="1" stop-color="#F7941D"/>
    </linearGradient>
    <linearGradient id="falcon" x1="14" y1="16" x2="50" y2="44" gradientUnits="userSpaceOnUse">
      <stop stop-color="#5fd4ff"/>
      <stop offset="1" stop-color="#00AAEF"/>
    </linearGradient>
    <linearGradient id="money" x1="38" y1="38" x2="56" y2="56" gradientUnits="userSpaceOnUse">
      <stop stop-color="#3dffaa"/>
      <stop offset="1" stop-color="#2dd4a0"/>
    </linearGradient>
  </defs>
  <rect width="64" height="64" rx="15" fill="#0d1219"/>
  <rect x="2.5" y="2.5" width="59" height="59" rx="12.5" stroke="url(#ring)" stroke-width="2"/>
  <!-- Falcon in flight -->
  <path d="M10 34c8-6 16-10 26-12l12-8-2 10 8 6-14-1-8 10-12-2-10-3z" fill="url(#falcon)"/>
  <path d="M36 12l6 8-4 2-8-10z" fill="#0090cc"/>
  <path d="M28 38l16-4 2 8-14 4-4-8z" fill="#0090cc" opacity="0.85"/>
  <path d="M18 30l-4-6 8 2-4 4z" fill="#0077aa"/>
  <!-- Payroll $ badge -->
  <circle cx="48" cy="48" r="12" fill="url(#money)" stroke="#080c12" stroke-width="1.5"/>
  <path d="M48 41.5c2.2 0 3.8 1.2 3.8 2.9 0 1.5-1.1 2.4-3.1 2.9l-1.9.5c-1.2.3-1.7.8-1.7 1.6 0 .9.8 1.5 2.1 1.5 1.3 0 2.2-.5 2.7-1.4l1.6 1.2c-.9 1.4-2.5 2.2-4.4 2.2-2.6 0-4.3-1.4-4.3-3.4 0-1.6 1.1-2.6 3-3.1l1.9-.5c1.1-.3 1.6-.8 1.6-1.5 0-.9-.8-1.4-2-1.4-1.2 0-2 .4-2.5 1.2l-1.5-1.1c.7-1.2 2.1-1.9 3.8-1.9z" fill="#062a1f"/>
  <path d="M47.2 39.8h1.6v14.4h-1.6V39.8z" fill="#062a1f"/>
</svg>
